<?xml version="1.0" encoding="UTF-8" standalone="no"?>
<!-- Created with Inkscape (http://www.inkscape.org/) -->

<svg
   xmlns:dc="http://purl.org/dc/elements/1.1/"
   xmlns:cc="http://creativecommons.org/ns#"
   xmlns:rdf="http://www.w3.org/1999/02/22-rdf-syntax-ns#"
   xmlns:svg="http://www.w3.org/2000/svg"
   xmlns="http://www.w3.org/2000/svg"
   xmlns:sodipodi="http://sodipodi.sourceforge.net/DTD/sodipodi-0.dtd"
   xmlns:inkscape="http://www.inkscape.org/namespaces/inkscape"
   width="210mm"
   height="297mm"
   viewBox="0 0 744.09448819 1052.3622047"
   id="svg2"
   version="1.1"
   inkscape:version="0.91 r13725"
   sodipodi:docname="drawing.svg">
  <defs
     id="defs4" />
  <sodipodi:namedview
     id="base"
     pagecolor="#ffffff"
     bordercolor="#666666"
     borderopacity="1.0"
     inkscape:pageopacity="0.0"
     inkscape:pageshadow="2"
     inkscape:zoom="0.49497475"
     inkscape:cx="649.82599"
     inkscape:cy="686.92108"
     inkscape:document-units="px"
     inkscape:current-layer="layer1"
     showgrid="false"
     showguides="false"
     inkscape:window-width="1280"
     inkscape:window-height="1001"
     inkscape:window-x="-8"
     inkscape:window-y="-8"
     inkscape:window-maximized="1" />
  <metadata
     id="metadata7">
    <rdf:RDF>
      <cc:Work
         rdf:about="">
        <dc:format>image/svg+xml</dc:format>
        <dc:type
           rdf:resource="http://purl.org/dc/dcmitype/StillImage" />
        <dc:title></dc:title>
      </cc:Work>
    </rdf:RDF>
  </metadata>
  <g
     inkscape:label="Layer 1"
     inkscape:groupmode="layer"
     id="layer1">
    <g
       id="g4343"
       transform="translate(-165.05921,167.55195)">
      <path
         sodipodi:nodetypes="cssssccc"
         inkscape:connector-curvature="0"
         id="path3364"
         d="m 368.70568,218.98635 c 0,0 -41.41625,-29.29441 -63.63961,12.12184 -22.22335,41.41625 -51.51778,232.33508 -51.51778,262.63966 0,74.25285 49.5957,79.74723 114.14724,83.84266 68.63698,4.35463 145.20223,-11.135 149.50257,-57.5787 5.05077,-54.54823 -36.83228,-230.96425 -58.58884,-280.82241 -31.5123,-72.21479 -72.73099,-22.22335 -72.73099,-22.22335 z"
         style="fill:#6d6a00;fill-opacity:1;fill-rule:evenodd;stroke:#000000;stroke-width:1px;stroke-linecap:butt;stroke-linejoin:miter;stroke-opacity:1" />
      <path
         sodipodi:nodetypes="ccccc"
         inkscape:connector-curvature="0"
         id="path3364-0"
         d="m 382.97853,143.12674 -13.63705,76.7716 18.2694,-3.84627 14.56056,-67.87457 z"
         style="fill:#2b0000;fill-rule:evenodd;stroke:#000000;stroke-width:1px;stroke-linecap:butt;stroke-linejoin:miter;stroke-opacity:1" />
    </g>
    <g
       id="g4351"
       transform="matrix(1.4697304,0,0,1.2376234,-231.35021,201.4739)">
      <path
         sodipodi:nodetypes="ccsssssc"
         inkscape:connector-curvature="0"
         id="path4347"
         d="m 558.61436,213.93559 -23.23351,-2.0203 c 0,0 -14.14214,-43.43657 -44.44672,-22.22336 -30.30457,21.2132 -89.90357,120.20815 -59.59899,155.56349 41.54634,48.47073 64.64675,10.01034 93.94418,9.09138 20.63008,-0.6471 16.25409,31.37919 74.75129,27.27412 57.5787,-4.04062 39.39595,-178.797 6.06091,-183.84777 -34.94209,-5.29426 -47.47716,16.16244 -47.47716,16.16244 z"
         style="fill:#800000;fill-rule:evenodd;stroke:#000000;stroke-width:1px;stroke-linecap:butt;stroke-linejoin:miter;stroke-opacity:1" />
      <path
         sodipodi:nodetypes="ccccc"
         inkscape:connector-curvature="0"
         id="path4349"
         d="m 542.14286,212.71935 11.78571,-50.35715 10,0.71429 -11.78571,50.00001 z"
         style="fill:#2b1100;fill-rule:evenodd;stroke:#000000;stroke-width:1px;stroke-linecap:butt;stroke-linejoin:miter;stroke-opacity:1" />
    </g>
  </g>
</svg>
